<?xml version="1.0" encoding="utf-8"?>
<!-- Generator: Adobe Illustrator 19.2.0, SVG Export Plug-In . SVG Version: 6.00 Build 0)  -->
<svg version="1.1" id="Layer_1" xmlns="http://www.w3.org/2000/svg" xmlns:xlink="http://www.w3.org/1999/xlink" x="0px" y="0px"
	 viewBox="0 0 37 18" style="enable-background:new 0 0 37 18;" xml:space="preserve">
<style type="text/css">
	.st0{fill:url(#SVGID_1_);}
	.st1{enable-background:new    ;}
</style>
<linearGradient id="SVGID_1_" gradientUnits="userSpaceOnUse" x1="0" y1="832.89" x2="37" y2="832.89" gradientTransform="matrix(1 0 0 1 0 -823.89)">
	<stop  offset="0" style="stop-color:#D9BC4E"/>
	<stop  offset="0.5" style="stop-color:#EEE373"/>
	<stop  offset="1" style="stop-color:#CDA638"/>
</linearGradient>
<path class="st0" d="M35,18H2c-1.1,0-2-0.9-2-2V2c0-1.1,0.9-2,2-2h33c1.1,0,2,0.9,2,2v14C37,17.1,36.1,18,35,18z"/>
<g class="st1">
	<path d="M6.9,3.1V15H3.9V3.1H6.9z"/>
	<path d="M17.7,3.1V15H15l0-8l-1.1,8H12l-1.1-7.8l0,7.8H8.2V3.1h4c0.1,0.7,0.2,1.6,0.4,2.5l0.4,3l0.7-5.5H17.7z"/>
	<path d="M18.9,3.1h2.3c1.5,0,2.5,0.1,3,0.2s0.9,0.4,1.2,0.7s0.4,0.7,0.5,1c0.1,0.4,0.1,1.1,0.1,2.3v4.2c0,1.1-0.1,1.8-0.2,2.1
		c-0.1,0.4-0.3,0.6-0.5,0.8c-0.2,0.2-0.6,0.3-0.9,0.4C24.1,15,23.6,15,22.8,15h-3.9V3.1z M22,5.2V13c0.4,0,0.7-0.1,0.8-0.3
		c0.1-0.2,0.2-0.7,0.2-1.5V6.6c0-0.5,0-0.9-0.1-1c0-0.2-0.1-0.3-0.2-0.3C22.6,5.2,22.4,5.2,22,5.2z"/>
	<path d="M30.1,3.1v2.8c0.2-0.3,0.5-0.5,0.8-0.6c0.3-0.1,0.6-0.2,1-0.2c0.4,0,0.8,0.1,1.1,0.2c0.3,0.1,0.5,0.3,0.7,0.5
		s0.2,0.5,0.3,0.7c0,0.2,0,0.7,0,1.4v4.4c0,0.7,0,1.2-0.1,1.6c-0.1,0.3-0.3,0.7-0.7,0.9c-0.4,0.3-0.8,0.4-1.3,0.4
		c-0.3,0-0.7-0.1-1-0.2c-0.3-0.2-0.6-0.4-0.8-0.7L29.9,15h-2.8V3.1H30.1z M31,8c0-0.5,0-0.8-0.1-1c-0.1-0.2-0.2-0.2-0.4-0.2
		c-0.2,0-0.3,0.1-0.4,0.2c-0.1,0.1-0.1,0.5-0.1,1v4.2c0,0.5,0,0.9,0.1,1c0.1,0.1,0.2,0.2,0.4,0.2c0.2,0,0.3-0.1,0.4-0.2
		s0.1-0.5,0.1-1.1V8z"/>
</g>
</svg>
